<svg width="28" height="28" viewBox="0 0 28 28" fill="none" xmlns="http://www.w3.org/2000/svg">
<circle cx="14" cy="14" r="13.5" fill="white" stroke="#E7E7E9"/>
<path d="M11.0735 11.3436C11.0265 11.3186 11 11.2844 11 11.2488C11 11.2132 11.0265 11.1791 11.0735 11.1541L11.6003 10.871C11.6454 10.8452 11.7084 10.8306 11.7743 10.8306C11.8402 10.8306 11.9031 10.8452 11.9482 10.871L16.5157 13.3248C16.5856 13.3623 16.6249 13.4132 16.625 13.4663L16.625 13.5358C16.6249 13.5888 16.5856 13.6397 16.5157 13.6773L11.9482 16.1311C11.9031 16.1569 11.8402 16.1715 11.7743 16.1715C11.7084 16.1715 11.6454 16.1569 11.6003 16.1311L11.0735 15.848C11.0265 15.823 11 15.7888 11 15.7532C11 15.7177 11.0265 15.6835 11.0735 15.6585L15.0893 13.501L11.0735 11.3436Z" fill="#898989"/>
</svg>
